HIERARCHY
ROOT Pelvis
{
	OFFSET 0.000000 0.000000 0.000000
	CHANNELS 6 Xposition Yposition Zposition Xrotation Yrotation Zrotation
	JOINT LeftUpLeg_virtual
	{
		OFFSET 0.000000 0.000000 0.000000
		CHANNELS 3 Xrotation Yrotation Zrotation
		JOINT LeftUpLeg
		{
			OFFSET 18.735201 -5.666702 -4.541200
			CHANNELS 3 Xrotation Yrotation Zrotation
			JOINT LeftLeg
			{
				OFFSET -0.021200 -31.938179 0.493100
				CHANNELS 3 Xrotation Yrotation Zrotation
				JOINT LeftFoot
				{
					OFFSET 0.021200 -31.938179 -4.336299
					CHANNELS 3 Xrotation Yrotation Zrotation
					JOINT LeftToeBase
					{
						OFFSET 0.943001 -26.722000 15.023500
						CHANNELS 3 Xrotation Yrotation Zrotation
						End Site
						{
							OFFSET 0 0 0
						}
					}
				}
			}
		}
	}
	JOINT RightUpLeg_virtual
	{
		OFFSET 0.000000 0.000000 0.000000
		CHANNELS 3 Xrotation Yrotation Zrotation
		JOINT RightUpLeg
		{
			OFFSET -18.735201 -5.666702 -4.541200
			CHANNELS 3 Xrotation Yrotation Zrotation
			JOINT RightLeg
			{
				OFFSET 0.018946 -31.938133 0.493100
				CHANNELS 3 Xrotation Yrotation Zrotation
				JOINT RightFoot
				{
					OFFSET -0.018946 -31.938126 -4.336299
					CHANNELS 3 Xrotation Yrotation Zrotation
					JOINT RightToeBase
					{
						OFFSET -0.943001 -26.722004 15.023500
						CHANNELS 3 Xrotation Yrotation Zrotation
						End Site
						{
							OFFSET 0 0 0
						}
					}
				}
			}
		}
	}
	JOINT Hips_virtual
	{
		OFFSET 0.000000 0.000000 0.000000
		CHANNELS 3 Xrotation Yrotation Zrotation
		JOINT Hips
		{
			OFFSET -0.000000 -0.000000 -0.000000
			CHANNELS 3 Xrotation Yrotation Zrotation
			JOINT Spine
			{
				OFFSET 0.000000 10.199997 -0.299500
				CHANNELS 3 Xrotation Yrotation Zrotation
				JOINT Spine1
				{
					OFFSET 0.000000 11.900002 -1.516600
					CHANNELS 3 Xrotation Yrotation Zrotation
					JOINT Spine2
					{
						OFFSET 0.000000 13.600006 -2.842500
						CHANNELS 3 Xrotation Yrotation Zrotation
						JOINT Neck_virtual
						{
							OFFSET 0.000000 0.000000 0.000000
							CHANNELS 3 Xrotation Yrotation Zrotation
							JOINT Neck
							{
								OFFSET 0.000000 9.624100 -2.890100
								CHANNELS 3 Xrotation Yrotation Zrotation
								JOINT Head
								{
									OFFSET 0.000000 14.068802 -1.351900
									CHANNELS 3 Xrotation Yrotation Zrotation
									End Site
									{
										OFFSET 0 0 0
									}
								}
							}
						}
						JOINT LeftShoulder_virtual
						{
							OFFSET 0.000000 0.000000 0.000000
							CHANNELS 3 Xrotation Yrotation Zrotation
							JOINT LeftShoulder
							{
								OFFSET 15.263000 10.923401 -0.547700
								CHANNELS 3 Xrotation Yrotation Zrotation
								JOINT LeftArm
								{
									OFFSET 25.438599 -2.830597 -13.032500
									CHANNELS 3 Xrotation Yrotation Zrotation
									JOINT LeftForeArm
									{
										OFFSET 29.960503 0.000000 0.000000
										CHANNELS 3 Xrotation Yrotation Zrotation
										JOINT LeftHand
										{
											OFFSET 27.849251 0.000000 0.000000
											CHANNELS 3 Xrotation Yrotation Zrotation
											End Site
											{
												OFFSET 0 0 0
											}
										}
									}
								}
							}
						}
						JOINT RightShoulder_virtual
						{
							OFFSET 0.000000 0.000000 0.000000
							CHANNELS 3 Xrotation Yrotation Zrotation
							JOINT RightShoulder
							{
								OFFSET -15.263000 10.923401 -0.547700
								CHANNELS 3 Xrotation Yrotation Zrotation
								JOINT RightArm
								{
									OFFSET -25.438599 -2.830597 -13.032500
									CHANNELS 3 Xrotation Yrotation Zrotation
									JOINT RightForeArm
									{
										OFFSET -29.960503 0.000000 0.000000
										CHANNELS 3 Xrotation Yrotation Zrotation
										JOINT RightHand
										{
											OFFSET -27.849251 0.000000 0.000000
											CHANNELS 3 Xrotation Yrotation Zrotation
											End Site
											{
												OFFSET 0 0 0
											}
										}
									}
								}
							}
						}
					}
				}
			}
		}
	}
}
MOTION
Frames: 10
Frame Time: 0.03333333
-12.631148 85.095810 9.786022 0.000000 0.000000 0.000000 1.532537 17.542333 1.390067 -50.053125 -19.959083 -4.558750 39.242087 15.549829 -8.063293 17.379157 -2.012507 -4.567827 0.000000 0.000000 0.000000 1.506334 18.501470 1.603322 -2.365103 -27.394726 -7.824625 33.125827 -7.126899 2.730143 -22.449049 -12.313245 1.937850 0.000000 0.000000 0.000000 1.577822 17.728079 1.592241 -0.862955 -0.008731 -0.077392 -1.152853 10.170592 -0.491743 5.407007 0.213787 0.890942 0.000000 0.000000 0.000000 4.152837 2.538017 0.722661 1.824996 3.948688 -0.300118 0.000000 0.000000 0.000000 5.159825 1.396060 0.459432 -5.490423 -4.786317 -1.452714 -63.728971 -3.446801 -43.630548 1.175493 -59.816604 2.707719 0.000000 0.000000 0.000000 4.118459 3.447543 1.024697 5.270411 6.799202 5.747809 17.664910 5.263132 73.741140 26.922418 51.276627 -16.561243 0.000000 0.000000 0.000000 
-12.671583 85.680740 9.806873 0.000000 0.000000 0.000000 2.158485 14.713827 1.162728 -48.724240 -19.176120 -2.788325 39.027165 16.081274 -7.998911 16.201839 -1.636176 -4.269159 0.000000 0.000000 0.000000 2.116010 15.710545 1.370394 -3.661096 -25.429643 -7.739214 33.620507 -6.519118 2.560554 -21.915584 -11.659543 1.627419 0.000000 0.000000 0.000000 2.178498 14.969779 1.344975 -0.867470 -0.001796 -0.086126 -0.946198 9.911166 -0.379927 5.655836 0.197756 0.644966 0.000000 0.000000 0.000000 4.371552 2.432769 0.526514 1.627319 2.951749 -0.143526 0.000000 0.000000 0.000000 5.333353 1.335523 0.332860 -5.242983 -4.756773 -1.123949 -65.263639 -3.063272 -43.736300 1.848758 -61.900905 2.383664 0.000000 0.000000 0.000000 4.460285 3.294744 0.776210 4.795339 6.710296 5.856289 16.925678 5.061566 73.294425 27.940629 51.789930 -16.830703 0.000000 0.000000 0.000000 
-12.708323 86.295654 9.857292 0.000000 0.000000 0.000000 2.823377 11.684428 0.933535 -47.294839 -18.476978 -0.961854 38.728983 16.615181 -7.798031 14.900925 -1.212604 -3.983094 0.000000 0.000000 0.000000 2.772292 12.717731 1.141232 -5.086330 -23.293626 -7.644878 34.112956 -5.793564 2.409832 -21.226111 -10.906546 1.492056 0.000000 0.000000 0.000000 2.824974 12.041377 1.104122 -0.871562 0.007559 -0.095286 -0.724728 9.633110 -0.308789 5.860056 0.157734 0.372132 0.000000 0.000000 0.000000 4.520007 2.290075 0.295604 1.395656 1.946435 -0.032967 0.000000 0.000000 0.000000 5.479877 1.244640 0.203735 -4.928935 -4.783620 -0.626603 -66.704734 -2.834118 -44.065153 2.755140 -64.163186 2.232944 0.000000 0.000000 0.000000 4.727752 3.100962 0.516362 4.356664 6.605902 5.993830 16.152252 5.052905 72.755366 28.748823 52.240558 -16.944086 0.000000 0.000000 0.000000 
-12.739069 86.937141 9.908997 0.000000 0.000000 0.000000 3.477654 8.431438 0.708537 -45.746701 -17.846753 0.942827 38.440434 17.073350 -7.445064 13.464309 -0.764428 -3.738897 0.000000 0.000000 0.000000 3.423199 9.491284 0.920189 -6.641625 -21.031288 -7.527067 34.575982 -5.000194 2.266070 -20.312868 -10.098812 1.424245 0.000000 0.000000 0.000000 3.486292 8.877128 0.882764 -0.877750 0.013780 -0.099258 -0.515956 9.317613 -0.247428 6.019580 0.073607 0.113437 0.000000 0.000000 0.000000 4.626494 2.106041 0.077339 1.145402 0.943359 0.046664 0.000000 0.000000 0.000000 5.618945 1.116993 0.080961 -4.558567 -4.844295 -0.030907 -67.962827 -2.825628 -44.673648 3.906010 -66.155040 2.297289 0.000000 0.000000 0.000000 4.934581 2.873049 0.276921 3.968593 6.539441 6.111435 15.445817 5.353756 72.045798 29.355924 52.623527 -16.921346 0.000000 0.000000 0.000000 
-12.746716 87.581863 9.981178 0.000000 0.000000 0.000000 4.071265 4.921956 0.500208 -44.088301 -17.189556 2.960630 38.244924 17.415166 -7.005085 11.993371 -0.339726 -3.634177 0.000000 0.000000 0.000000 4.026084 5.980096 0.713599 -8.316187 -18.616997 -7.351274 35.023291 -4.183291 2.096454 -19.224225 -9.282927 1.252091 0.000000 0.000000 0.000000 4.111458 5.422306 0.691075 -0.882780 0.011557 -0.095891 -0.329399 8.950043 -0.175482 6.136923 -0.063645 -0.077100 0.000000 0.000000 0.000000 4.718661 1.883175 -0.078971 0.900930 -0.050687 0.112583 0.000000 0.000000 0.000000 5.766297 0.952020 -0.009784 -4.149701 -4.905937 0.569897 -69.046922 -3.114835 -45.496088 5.179097 -67.422259 2.493428 0.000000 0.000000 0.000000 5.075154 2.614510 0.102303 3.642287 6.587337 6.150234 14.850535 6.009259 71.101825 29.718809 52.838374 -16.727804 0.000000 0.000000 0.000000 
-12.704562 88.182854 10.036560 0.000000 0.000000 0.000000 4.555994 1.101100 0.322020 -42.379210 -16.348312 5.073860 38.286711 17.600933 -6.557841 10.519973 0.047058 -3.739414 0.000000 0.000000 0.000000 4.521176 2.145751 0.529735 -10.118334 -16.011903 -7.113420 35.526143 -3.353212 1.880153 -18.009675 -8.469194 0.907342 0.000000 0.000000 0.000000 4.638483 1.661326 0.541895 -0.887671 0.001768 -0.086699 -0.141895 8.528488 -0.083718 6.208343 -0.247402 -0.160661 0.000000 0.000000 0.000000 4.827239 1.632003 -0.137045 0.686312 -1.025619 0.175604 0.000000 0.000000 0.000000 5.915110 0.762535 -0.041527 -3.732038 -4.955512 1.081111 -70.005819 -3.709498 -46.359981 6.381295 -67.781991 2.667341 0.000000 0.000000 0.000000 5.144100 2.339708 0.027147 3.382509 6.805885 6.068720 14.341367 6.957617 69.914520 29.782948 52.767419 -16.316246 0.000000 0.000000 0.000000 
-12.603151 88.698746 10.080540 0.000000 0.000000 0.000000 4.903230 -3.077461 0.193487 -40.684582 -15.174840 7.221767 38.708622 17.607633 -6.170345 9.102893 0.423212 -4.094432 0.000000 0.000000 0.000000 4.884460 -2.013900 0.394429 -12.139917 -13.207260 -6.835994 36.195614 -2.489606 1.610743 -16.652085 -7.649377 0.407370 0.000000 0.000000 0.000000 5.025737 -2.423412 0.441778 -0.889490 -0.007649 -0.080445 0.069285 8.060322 0.019840 6.242652 -0.459060 -0.130087 0.000000 0.000000 0.000000 4.960727 1.370853 -0.095022 0.515821 -1.971652 0.239167 0.000000 0.000000 0.000000 6.052153 0.563296 -0.006473 -3.340883 -4.985090 1.402336 -70.868274 -4.645841 -47.079838 7.345662 -67.414527 2.673618 0.000000 0.000000 0.000000 5.135678 2.059720 0.058357 3.197254 7.186813 5.847259 13.872152 8.026108 68.551583 29.542211 52.369062 -15.701423 0.000000 0.000000 0.000000 
-12.434196 89.110168 10.113155 0.000000 0.000000 0.000000 5.119599 -7.590515 0.130813 -39.023446 -13.538727 9.315503 39.516493 17.448200 -5.860901 7.555605 0.840673 -4.661725 0.000000 0.000000 0.000000 5.106088 -6.499357 0.323899 -14.427511 -10.227375 -6.538494 37.107205 -1.572790 1.305371 -15.172027 -6.805991 -0.211767 0.000000 0.000000 0.000000 5.268288 -6.817286 0.399757 -0.884640 -0.014192 -0.077978 0.324612 7.572012 0.121796 6.237619 -0.683309 -0.004890 0.000000 0.000000 0.000000 5.106731 1.113533 0.020732 0.388533 -2.876890 0.298641 0.000000 0.000000 0.000000 6.152542 0.365511 0.089432 -3.005879 -5.014526 1.455508 -71.610169 -5.857465 -47.489615 8.017766 -66.698935 2.471165 0.000000 0.000000 0.000000 5.044764 1.782056 0.174919 3.086061 7.682300 5.512777 13.343569 8.994857 67.196166 29.044188 51.656769 -14.939343 0.000000 0.000000 0.000000 
-12.192650 89.410217 10.138401 0.000000 0.000000 0.000000 5.221494 -12.368429 0.147904 -37.405302 -11.366225 11.300052 40.550188 17.161093 -5.603975 5.639029 1.371568 -5.351926 0.000000 0.000000 0.000000 5.187686 -11.271381 0.328542 -17.007629 -7.136118 -6.262906 38.307372 -0.598501 0.996664 -13.596569 -5.935503 -0.905096 0.000000 0.000000 0.000000 5.400844 -11.451507 0.427410 -0.880874 -0.014321 -0.080135 0.622783 7.096406 0.214814 6.208714 -0.900494 0.167861 0.000000 0.000000 0.000000 5.251712 0.875731 0.171805 0.293987 -3.727408 0.345437 0.000000 0.000000 0.000000 6.205307 0.183575 0.217446 -2.739150 -5.073640 1.200239 -72.096192 -7.231039 -47.520474 8.449628 -66.100891 2.113757 0.000000 0.000000 0.000000 4.884247 1.515999 0.329775 3.051524 8.239288 5.098576 12.690275 9.702129 66.023716 28.398526 50.749299 -14.140899 0.000000 0.000000 0.000000 
-11.884880 89.609390 10.152344 0.000000 0.000000 0.000000 5.243066 -17.304332 0.258761 -35.859846 -8.654300 13.145258 41.659124 16.794201 -5.376922 3.493695 2.120026 -6.047543 0.000000 0.000000 0.000000 5.172942 -16.227174 0.429960 -19.865525 -3.978118 -6.010283 39.809430 0.440175 0.699935 -11.982329 -5.033752 -1.628850 0.000000 0.000000 0.000000 5.452739 -16.278982 0.541372 -0.874934 -0.006842 -0.085754 0.941221 6.659374 0.315969 6.171145 -1.108757 0.343831 0.000000 0.000000 0.000000 5.373083 0.660700 0.315344 0.210735 -4.513178 0.372878 0.000000 0.000000 0.000000 6.224900 0.012356 0.337910 -2.539841 -5.195620 0.655186 -72.255410 -8.669799 -47.218805 8.657147 -65.864115 1.619355 0.000000 0.000000 0.000000 4.676499 1.264731 0.476353 3.097903 8.792773 4.639146 11.907112 10.105607 65.152826 27.727722 49.809066 -13.420676 0.000000 0.000000 0.000000 
